<?xml version="1.0" standalone="no"?>
<!DOCTYPE svg PUBLIC "-//W3C//DTD SVG 1.1//EN" "http://www.w3.org/Graphics/SVG/1.1/DTD/svg11.dtd" >
<svg xmlns="http://www.w3.org/2000/svg">
<metadata>Generated by IcoMoon</metadata>
<defs>
<font id="icomoon" horiz-adv-x="1024">
<font-face units-per-em="1024" ascent="960" descent="-64" />
<missing-glyph horiz-adv-x="1024" />
<glyph unicode="&#x20;" horiz-adv-x="512" d="" />
<glyph unicode="&#xe600;" glyph-name="location" horiz-adv-x="640" d="M320 960c-177 0-320-143-320-320s160-416 320-704c160 288 320 527 320 704s-143 320-320 320zM320 512c-71 0-128 57-128 128s57 128 128 128 128-57 128-128-57-128-128-128z" />
<glyph unicode="&#xe601;" glyph-name="youtube" d="M731.429 438.857q0 21.143-17.143 30.857l-292.571 182.857q-17.714 11.429-37.143 1.143-18.857-10.286-18.857-32v-365.714q0-21.714 18.857-32 9.143-4.571 17.714-4.571 11.429 0 19.429 5.714l292.571 182.857q17.143 9.714 17.143 30.857zM1024 438.857q0-54.857-0.571-85.714t-4.857-78-12.857-84.286q-9.143-41.714-39.429-70.286t-70.857-33.143q-126.857-14.286-383.429-14.286t-383.429 14.286q-40.571 4.571-71.143 33.143t-39.714 70.286q-8 37.143-12.286 84.286t-4.857 78-0.571 85.714 0.571 85.714 4.857 78 12.857 84.286q9.143 41.714 39.429 70.286t70.857 33.143q126.857 14.286 383.429 14.286t383.429-14.286q40.571-4.571 71.143-33.143t39.714-70.286q8-37.143 12.286-84.286t4.857-78 0.571-85.714z" />
<glyph unicode="&#xe602;" glyph-name="menu" d="M128 170.667h768v85.333h-768v-85.333zM128 384h768v85.333h-768v-85.333zM128 682.667v-85.333h768v85.333h-768z" />
<glyph unicode="&#xe603;" glyph-name="social-facebook" d="M554.667 512h128v-128h-128v-298.667h-128v298.667h-128v128h128v53.547c0 50.731 15.957 114.816 47.701 149.845 31.744 35.115 71.381 52.608 118.869 52.608h89.429v-128h-89.6c-21.248 0-38.4-17.152-38.4-38.357v-89.643z" />
<glyph unicode="&#xe604;" glyph-name="social-twitter" d="M805.973 639.488c34.475 21.163 57.301 50.048 68.48 86.784-33.536-17.792-66.944-29.995-100.309-36.736-29.995 32.256-67.968 48.64-113.493 48.64-44.501 0-82.091-15.616-112.768-45.995-30.507-30.592-45.909-67.755-45.909-111.147 0-13.184 1.664-24.96 4.992-34.944-131.243 4.48-239.872 58.923-325.461 163.712-14.507-25.643-21.76-51.755-21.76-78.763 0-55.509 23.424-99.499 70.187-131.797-26.667 2.261-50.176 9.003-70.187 20.053 0-39.637 11.648-72.747 34.987-101.888 23.424-28.843 53.504-47.232 90.24-55.083-13.312-3.413-27.349-5.035-41.771-5.035-13.312 0-22.741 1.109-28.331 3.541 9.813-32.299 28.331-58.496 55.083-78.549 26.667-20.139 57.344-30.763 91.819-31.701-56.832-44.587-121.813-66.645-195.328-66.645-18.005 0-30.763 0.256-38.485 1.621 72.405-47.019 153.003-70.357 242.176-70.357 91.264 0 171.904 23.125 242.091 69.376 70.187 45.995 121.984 102.741 155.264 169.557 33.451 66.731 50.005 136.192 50.005 208.725v19.968c32.341 24.32 58.496 51.712 78.507 81.963-29.013-12.501-59.008-20.992-90.027-25.301z" />
<glyph unicode="&#xe605;" glyph-name="close" d="M810.667 768q18.333 0 30.5-12.167t12.167-30.5q0-18-12.333-30.333l-268.667-268.333 268.667-268.333q12.333-12.333 12.333-30.333 0-18.333-12.167-30.5t-30.5-12.167q-18 0-30.333 12.333l-268.333 268.667-268.333-268.667q-12.333-12.333-30.333-12.333-18.333 0-30.5 12.167t-12.167 30.5q0 18 12.333 30.333l268.667 268.333-268.667 268.333q-12.333 12.333-12.333 30.333 0 18.333 12.167 30.5t30.5 12.167q18 0 30.333-12.333l268.333-268.667 268.333 268.667q12.333 12.333 30.333 12.333z" />
<glyph unicode="&#xe606;" glyph-name="arrow-right" d="M389.171 285.798c-13.722-13.875-13.722-36.301 0-50.125 13.67-13.875 35.891-13.875 49.613 0l196.096 200.038c13.722 13.875 13.722 36.301 0 50.125l-196.096 200.090c-13.722 13.875-35.891 13.875-49.613 0s-13.722-36.25-0.051-50.074l160.819-175.053-160.768-175.002z" />
<glyph unicode="&#xe607;" glyph-name="arrow-left" d="M634.829 285.798c13.722-13.875 13.722-36.301 0-50.125-13.722-13.875-35.891-13.875-49.613 0l-196.096 200.038c-13.722 13.875-13.722 36.301 0 50.125l196.096 200.090c13.722 13.875 35.891 13.875 49.613 0s13.722-36.25 0-50.125l-160.768-175.002 160.768-175.002z" />
<glyph unicode="&#xe608;" glyph-name="arrow-down" d="M687.002 583.629c13.875 13.722 36.301 13.722 50.125 0 13.875-13.722 13.875-35.891 0-49.613l-200.038-196.096c-13.875-13.722-36.301-13.722-50.125 0l-200.090 196.096c-13.824 13.722-13.824 35.891 0 49.613 13.875 13.722 36.25 13.722 50.125 0l175.002-160.768 175.002 160.768z" />
<glyph unicode="&#xe609;" glyph-name="arrow-up" d="M336.947 337.971c-13.875-13.722-36.25-13.722-50.125 0-13.824 13.722-13.875 35.891 0 49.664l200.090 195.994c13.875 13.722 36.301 13.722 50.125 0l200.090-196.045c13.875-13.773 13.875-35.942 0-49.664s-36.25-13.722-50.125 0l-175.053 160.819-175.002-160.768z" />
<glyph unicode="&#xe60a;" glyph-name="phone" horiz-adv-x="805" d="M804.571 242.286q0-15.429-5.714-40.286t-12-39.143q-12-28.571-69.714-60.571-53.714-29.143-106.286-29.143-15.429 0-30 2t-32.857 7.143-27.143 8.286-31.714 11.714-28 10.286q-56 20-100 47.429-73.143 45.143-151.143 123.143t-123.143 151.143q-27.429 44-47.429 100-1.714 5.143-10.286 28t-11.714 31.714-8.286 27.143-7.143 32.857-2 30q0 52.571 29.143 106.286 32 57.714 60.571 69.714 14.286 6.286 39.143 12t40.286 5.714q8 0 12-1.714 10.286-3.429 30.286-43.429 6.286-10.857 17.143-30.857t20-36.286 17.714-30.571q1.714-2.286 10-14.286t12.286-20.286 4-16.286q0-11.429-16.286-28.571t-35.429-31.429-35.429-30.286-16.286-26.286q0-5.143 2.857-12.857t4.857-11.714 8-13.714 6.571-10.857q43.429-78.286 99.429-134.286t134.286-99.429q1.143-0.571 10.857-6.571t13.714-8 11.714-4.857 12.857-2.857q10.286 0 26.286 16.286t30.286 35.429 31.429 35.429 28.571 16.286q8 0 16.286-4t20.286-12.286 14.286-10q14.286-8.571 30.571-17.714t36.286-20 30.857-17.143q40-20 43.429-30.286 1.714-4 1.714-12z" />
<glyph unicode="&#xe60e;" glyph-name="staff" horiz-adv-x="1126" d="M768 611.84c0-84.831-68.769-153.6-153.6-153.6s-153.6 68.769-153.6 153.6c0 84.831 68.769 153.6 153.6 153.6s153.6-68.769 153.6-153.6zM337.92 765.44c0-79.176-64.184-143.36-143.36-143.36s-143.36 64.184-143.36 143.36c0 79.176 64.184 143.36 143.36 143.36s143.36-64.184 143.36-143.36zM1075.2 181.76c0-113.108-91.692-204.8-204.8-204.8s-204.8 91.692-204.8 204.8c0 113.108 91.692 204.8 204.8 204.8s204.8-91.692 204.8-204.8z" />
<glyph unicode="&#xe612;" glyph-name="search-2" d="M1000.64 70.848l-184.896 184.896c50.688 72.576 80.64 160.704 80.64 255.936 0 247.424-200.64 448-448 448s-448-200.576-448-448c0-247.424 200.576-448 448-448 95.232 0 183.424 29.952 256 80.64l184.896-184.896c30.72-30.72 80.64-30.72 111.36 0s30.72 80.576 0 111.424zM448.32 191.616c-176.704 0-320 143.232-320 320s143.296 320 320 320c176.768 0 320-143.232 320-320 0.064-176.768-143.168-320-320-320z" />
<glyph unicode="&#xe61d;" glyph-name="envelope" d="M0 149.334c0-47.146 38.186-85.334 85.334-85.334h853.334c47.146 0 85.334 38.186 85.334 85.334l-0.002 576c0 47.146-38.186 85.334-85.334 85.334l-853.332-0.002c-47.146 0-85.334-38.186-85.334-85.334v-575.998zM314.026 436.694l-195.2 196.48c-16.192 16.214-16.192 42.454 0 58.666 16.234 16.214 42.474 16.214 58.666 0l311.468-311.872c12.586-12.374 33.302-12.374 45.674 0l311.872 311.872c16.214 16.214 42.454 16.214 58.666 0 16.214-16.214 16.214-42.454 0-58.666l-195.414-196.48 195.414-195.178c16.214-16.214 16.214-42.454 0-58.666s-42.454-16.214-58.666 0l-195.2 194.986c0 0-60.992-62.080-72.086-73.174-17.3-16.876-41.194-27.328-67.22-27.328-26.454 0-50.346 10.666-67.626 27.968-11.306 11.094-71.894 72.512-71.894 72.512l-195.008-194.986c-16.192-16.214-42.432-16.214-58.666 0-16.192 16.214-16.192 42.454 0 58.666l195.22 195.2z" />
<glyph unicode="&#xe900;" glyph-name="libro" horiz-adv-x="1271" d="M634.768 11.335v0 0c-2.79 0-5.58 0-6.975 1.395 0 0 0 0 0 0v0c-2.79 1.395-4.185 1.395-6.975 2.79-1.395 1.395-2.79 1.395-2.79 2.79-64.174 59.989-118.583 87.891-171.597 87.891-40.458 0-78.125-15.346-117.188-33.482-44.643-19.531-92.076-39.063-149.275-39.063-25.112 0-50.223 4.185-76.73 12.556-11.161 2.79-18.136 12.556-18.136 23.717v803.575c0 8.371 4.185 15.346 9.766 20.926 6.975 4.185 13.951 5.58 22.322 4.185 20.926-6.975 40.458-9.766 61.384-9.766 47.433 0 87.891 16.741 129.744 34.877 43.248 16.741 86.496 36.272 138.114 36.272 61.384 0 122.768-27.902 189.733-86.496 65.569 58.594 126.954 86.496 188.338 86.496 50.223 0 94.866-19.531 136.719-37.668s82.311-34.877 129.744-34.877c20.926 0 40.458 2.79 61.384 9.766 8.371 2.79 15.346 1.395 22.322-4.185 6.975-4.185 11.161-12.556 11.161-19.531v-803.575c0-11.161-6.975-20.926-18.136-23.717-26.507-8.371-50.223-12.556-76.73-12.556 0 0 0 0 0 0-57.199 0-104.632 19.531-149.275 39.063-39.063 16.741-76.73 33.482-117.188 33.482-53.014 0-107.422-27.902-171.597-87.891-1.395-1.395-2.79-1.395-2.79-2.79v0c0 0 0 0 0 0-1.395-1.395-4.185-2.79-5.58-2.79 0 0 0 0 0 0v0 0c-4.185-1.395-6.975-1.395-9.766-1.395zM824.501 156.425c50.223 0 94.866-19.531 136.719-37.668s82.311-34.877 129.744-34.877v0c13.951 0 29.297 1.395 43.248 5.58v751.956c-13.951-2.79-29.297-4.185-43.248-4.185-57.199 0-104.632 19.531-149.275 39.063-39.063 16.741-76.73 33.482-117.188 33.482-51.619 0-103.237-26.507-164.621-80.916v-738.005c58.594 44.643 111.608 65.569 164.621 65.569zM135.324 88.065c15.346-2.79 29.297-5.58 43.248-5.58 47.433 0 87.891 16.741 129.744 34.877s86.496 37.668 136.719 37.668c54.409 0 107.422-20.926 164.621-65.569v739.401c-61.384 55.804-113.003 80.916-164.621 80.916-40.458 0-78.125-15.346-117.188-33.482-44.643-19.531-92.076-39.063-149.275-39.063-13.951 0-29.297 1.395-43.248 4.185v-753.351zM1245.82-64h-1220.708c-13.951 0-25.112 11.161-25.112 25.112v857.984c0 13.951 11.161 25.112 25.112 25.112h85.101v-50.223h-59.989v-807.76h1169.090v807.76h-59.989v50.223h85.101c13.951 0 25.112-11.161 25.112-25.112v-857.984c1.395-13.951-9.766-25.112-23.717-25.112z" />
<glyph unicode="&#xe901;" glyph-name="cel" horiz-adv-x="792" d="M675.269-64h-559.026c-64.462 0-116.244 51.781-116.244 116.244v791.513c0 64.462 51.781 116.244 116.244 116.244h559.026c64.462 0 116.244-51.781 116.244-116.244v-791.513c0-64.462-52.838-116.244-116.244-116.244zM116.244 913.503c-38.043 0-69.746-31.703-69.746-69.746v-791.513c0-38.043 31.703-69.746 69.746-69.746h559.026c38.043 0 69.746 31.703 69.746 69.746v791.513c0 38.043-31.703 69.746-69.746 69.746h-559.026zM7.397 191.736h745.015v-46.497h-745.015v46.497zM512.528 52.244h-232.487c-12.681 0-23.249 10.568-23.249 23.249s10.568 23.249 23.249 23.249h232.487c12.681 0 23.249-10.568 23.249-23.249s-10.568-23.249-23.249-23.249zM441.725 797.259h-92.995c-12.681 0-23.249 10.568-23.249 23.249s10.568 23.249 23.249 23.249h92.995c12.681 0 23.249-10.568 23.249-23.249s-9.511-23.249-23.249-23.249z" />
<glyph unicode="&#xe902;" glyph-name="perfil" horiz-adv-x="1107" d="M560.848 317.135c-177.3 0-322.035 144.735-322.035 322.035s144.735 320.829 322.035 320.829 322.035-144.735 322.035-322.035-144.735-320.829-322.035-320.829zM560.848 906.931c-148.353 0-268.966-120.612-268.966-268.966s120.612-268.966 268.966-268.966c148.353 0 268.966 120.612 268.966 268.966-1.206 148.353-120.612 268.966-268.966 268.966zM45.833-64l-45.833 26.535c78.398 131.468 303.943 219.515 560.848 219.515 241.225 0 455.915-78.398 546.375-197.804l-42.214-31.359c-79.604 106.139-281.027 177.3-502.954 177.3-236.4-1.206-448.678-80.81-516.221-194.186z" />
<glyph unicode="&#xe903;" glyph-name="shopping" horiz-adv-x="879" d="M770.924-64h-662.463c-29.774 0-58.484 11.697-78.687 34.027-21.267 22.33-30.837 49.977-29.774 80.814l87.194 679.477c1.063 26.584 24.457 48.914 53.167 48.914h598.663c28.71 0 52.104-22.33 53.167-49.977l86.131-676.287c2.127-31.9-8.507-60.611-28.71-81.877-20.204-23.394-47.85-35.090-78.687-35.090zM140.361 732.444c-3.19 0-6.38-3.19-6.38-6.38l-87.194-679.477c-1.063-15.95 5.317-31.9 17.013-44.66s27.647-19.14 44.66-19.14h663.526c17.013 0 32.964 6.38 44.66 19.14s18.077 28.71 17.013 45.724l-86.131 676.287c0 5.317-3.19 7.443-6.38 7.443h-600.789zM568.889 615.477c-12.76 0-23.394 10.633-23.394 23.394v169.072c0 58.484-46.787 105.271-105.271 105.271s-105.271-46.787-105.271-105.271v-169.072c0-12.76-10.633-23.394-23.394-23.394s-23.394 10.633-23.394 23.394v169.072c-1.063 84.004 68.054 152.058 152.058 152.058s152.058-68.054 152.058-152.058v-169.072c0-13.823-10.633-23.394-23.394-23.394z" />
<glyph unicode="&#xe904;" glyph-name="Sin-tiÌtulo-1-04" d="M388.566 183.974c-214.763 0-388.566 173.803-388.566 387.459s173.803 388.566 388.566 388.566 388.566-173.803 388.566-388.566-174.91-387.459-388.566-387.459zM388.566 900.221c-181.552 0-328.787-147.235-328.787-328.787s147.235-328.787 328.787-328.787 328.787 147.235 328.787 328.787-148.342 328.787-328.787 328.787zM952.043-64v0c-15.498 0-30.997 6.642-42.067 17.712l-169.375 168.268c-23.248 23.248-23.248 60.886 0 84.134l12.177 12.177c11.070 11.070 26.569 17.712 42.067 17.712v0c15.498 0 30.997-6.642 42.067-17.712l169.375-169.375c23.248-23.248 23.248-60.886 0-84.134l-12.177-12.177c-11.070-9.963-26.569-16.605-42.067-16.605zM620.33 297.045l42.27 42.27 147.945-147.945-42.27-42.27-147.945 147.945z" />
<glyph unicode="&#xe905;" glyph-name="next" horiz-adv-x="564" d="M0-10.628l53.372-53.372 510.138 512-510.138 512-53.372-53.372 457.387-458.628z" />
<glyph unicode="&#xe906;" glyph-name="prev" horiz-adv-x="564" d="M563.51-10.628l-53.372-53.372-510.138 512 510.138 512 53.372-53.372-456.766-458.628z" />
<glyph unicode="&#xe907;" glyph-name="play" d="M716.8 464.605l-282.292 193.73c-8.303 5.535-33.211 5.535-33.211-16.605v-387.459c2.768-24.908 24.908-24.908 33.211-16.605l282.292 193.73c8.303 2.768 16.605 22.141 0 33.211v0zM445.578 295.784v304.432l221.405-152.216-221.405-152.216zM512 960c-282.292 0-512-229.708-512-512s229.708-512 512-512 512 229.708 512 512-229.708 512-512 512zM512-19.719c-257.384 0-467.719 210.335-467.719 467.719s210.335 467.719 467.719 467.719 467.719-210.335 467.719-467.719-210.335-467.719-467.719-467.719z" />
<glyph unicode="&#xe908;" glyph-name="comillas" horiz-adv-x="1358" d="M334.090 503.682c10.865 89.634 92.35 171.119 239.024 244.456l27.162 13.581-108.647 198.281-24.446-13.581c-309.645-154.822-467.183-377.549-467.183-657.316 0-97.782 29.878-179.268 92.35-247.172s135.809-103.215 222.727-103.215c76.053 0 141.241 27.162 192.849 81.485s76.053 119.512 76.053 198.281c0 73.337-27.162 138.525-78.769 195.565-46.175 46.175-103.215 76.053-171.119 89.634zM464.467 58.228c-40.743-43.459-92.35-65.188-152.106-65.188-70.621 0-127.66 27.162-179.268 84.202s-76.053 127.66-76.053 211.862c0 127.66 35.31 244.456 108.647 344.955 67.905 95.066 171.119 179.268 304.212 249.889l54.324-100.499c-162.971-84.202-244.456-187.416-244.456-304.212v-24.446l24.446-2.716c67.905-8.149 119.512-32.594 162.971-78.769s62.472-97.782 62.472-157.538c-2.716-62.472-21.729-114.080-65.188-157.538zM1097.337 503.682c10.865 89.634 92.35 171.119 236.308 244.456l27.162 13.581-108.647 198.281-24.446-13.581c-309.645-154.822-467.183-377.549-467.183-657.316 0-97.782 29.878-179.268 92.35-247.172s135.809-103.215 222.727-103.215c76.053 0 141.241 27.162 192.849 81.485s76.053 119.512 76.053 198.281c0 73.337-27.162 138.525-78.769 195.565-46.175 46.175-103.215 76.053-168.403 89.634zM1227.714 58.228c-40.743-43.459-89.634-65.188-152.106-65.188-70.621 0-127.66 27.162-179.268 84.202s-78.769 127.66-78.769 211.862c0 127.66 35.31 244.456 108.647 344.955 67.905 95.066 171.119 179.268 304.212 249.889l51.607-100.499c-160.255-84.202-244.456-187.416-244.456-304.212v-24.446l24.446-2.716c65.188-8.149 119.512-32.594 160.255-78.769 43.459-46.175 62.472-97.782 62.472-157.538 2.716-62.472-16.297-114.080-57.040-157.538z" />
<glyph unicode="&#xe909;" glyph-name="like" horiz-adv-x="995" d="M966.713 261.818c21.483 25.063 32.224 57.287 28.643 85.93 0 32.224-14.322 57.287-28.643 75.189 14.322 35.804 17.902 89.51-28.643 132.476-35.804 32.224-93.091 46.545-171.86 39.385-57.287-3.58-103.832-14.322-103.832-14.322v0c-10.741-3.58-21.483-3.58-32.224-7.161 0 14.322 0 46.545 25.063 125.315 28.643 93.091 28.643 161.119-7.161 207.664-35.804 50.126-93.091 53.706-107.413 53.706s-32.224-7.161-42.965-17.902c-25.063-28.643-21.483-78.769-17.902-103.832-28.643-75.189-107.413-261.371-175.441-315.077 0 0-3.58-3.58-3.58-3.58-14.322-17.902-28.643-39.385-39.385-60.867-14.322 7.161-28.643 10.741-42.965 10.741h-128.895c-50.126 0-89.51-39.385-89.51-89.51v-347.301c0-50.126 39.385-89.51 89.51-89.51h132.476c17.902 0 35.804 7.161 50.126 17.902l50.126-7.161c7.161 0 143.217-17.902 286.434-14.322 25.063-3.58 50.126-3.58 71.608-3.58 39.385 0 71.608 3.58 100.252 10.741 64.448 14.322 110.993 42.965 132.476 82.35 17.902 32.224 17.902 60.867 14.322 82.35 42.965 39.385 50.126 82.35 50.126 110.993-3.58 14.322-7.161 28.643-10.741 39.385zM89.51 0.448c-17.902 0-32.224 14.322-32.224 32.224v347.301c0 17.902 14.322 32.224 32.224 32.224h132.476c17.902 0 32.224-14.322 32.224-32.224v-347.301c0-17.902-14.322-32.224-32.224-32.224h-132.476zM913.007 286.881c-10.741-10.741-10.741-25.063-3.58-35.804 0 0 7.161-14.322 10.741-35.804 0-28.643-10.741-53.706-39.385-75.189-10.741-7.161-14.322-21.483-10.741-32.224 0 0 10.741-28.643-7.161-53.706-14.322-25.063-46.545-42.965-93.091-53.706-39.385-7.161-93.091-10.741-157.538-3.58 0 0-3.58 0-3.58 0-139.636-3.58-275.692 14.322-279.273 14.322v0l-21.483 3.58c0 7.161 3.58 10.741 3.58 17.902v347.301c0 10.741 0 17.902-3.58 25.063 3.58 14.322 14.322 46.545 39.385 75.189 96.671 75.189 189.762 332.979 193.343 343.72 0 3.58 3.58 10.741 0 14.322-3.58 25.063-3.58 53.706 3.58 64.448 10.741 0 42.965-3.58 60.867-28.643 21.483-28.643 21.483-85.93-3.58-157.538-35.804-107.413-39.385-168.28-10.741-193.343 14.322-14.322 32.224-14.322 46.545-7.161 14.322 3.58 25.063 7.161 35.804 7.161 0 0 3.58 0 3.58 0 64.448 14.322 182.601 21.483 225.566-14.322 35.804-32.224 10.741-75.189 7.161-78.769-7.161-10.741-7.161-28.643 3.58-35.804 0 0 21.483-21.483 25.063-50.126 0-17.902-7.161-35.804-25.063-57.287z" />
<glyph unicode="&#xe90a;" glyph-name="mensaje" d="M512 960c-282.853 0-512-200.503-512-447.552 0-143.217 75.189-268.531 193.343-350.881v-225.566l225.566 136.056c32.224-3.58 64.448-7.161 96.671-7.161 282.853 0 512 200.503 512 447.552s-232.727 447.552-515.58 447.552zM512 125.762c-35.804 0-75.189 3.58-107.413 10.741l-150.378-89.51 3.58 150.378c-114.573 68.028-189.762 186.182-189.762 315.077 0 211.245 200.503 383.105 447.552 383.105s447.552-171.86 447.552-383.105-204.084-386.685-451.133-386.685z" />
<glyph unicode="&#xe90b;" glyph-name="arrow-2" horiz-adv-x="1228" d="M1156.476 745.175l-21.483 17.902c-21.483 17.902-46.545 32.224-68.028 46.545-25.063 17.902-50.126 35.804-71.608 50.126-28.643 21.483-53.706 39.385-82.35 60.867-10.741 0-14.322 3.58-17.902 7.161-21.483 14.322-50.126 35.804-82.35 32.224-42.965-3.58-78.769-50.126-78.769-85.93v-100.252c0 0 0 0-3.58 0-96.671 0-576.448-25.063-576.448-504.839 0-14.322 10.741-25.063 25.063-28.643 0 0 3.58 0 3.58 0 10.741 0 21.483 7.161 28.643 17.902 3.58 10.741 89.51 250.629 469.035 250.629 17.902 0 39.385 0 53.706-3.58v-93.091c0-32.224 21.483-60.867 53.706-78.769 10.741-7.161 21.483-7.161 35.804-7.161 28.643 0 50.126 17.902 68.028 32.224 3.58 3.58 10.741 7.161 14.322 10.741 17.902 10.741 32.224 21.483 50.126 32.224 7.161 7.161 17.902 10.741 25.063 17.902 42.965 32.224 89.51 60.867 132.476 93.091l10.741 7.161c7.161 3.58 10.741 7.161 17.902 10.741 3.58 3.58 10.741 7.161 14.322 10.741 32.224 21.483 75.189 46.545 75.189 100.252-3.58 53.706-39.385 75.189-75.189 103.832zM1120.671 591.217c-3.58-3.58-10.741-7.161-14.322-10.741-7.161-3.58-10.741-7.161-17.902-10.741l-10.741-7.161c-42.965-32.224-85.93-60.867-132.476-93.091-7.161-7.161-17.902-10.741-25.063-17.902-14.322-10.741-32.224-21.483-46.545-32.224-7.161-3.58-10.741-7.161-17.902-14.322-10.741-7.161-25.063-17.902-32.224-17.902 0 0-7.161 0-7.161 0-10.741 7.161-25.063 17.902-25.063 28.643v118.154c0 14.322-7.161 28.643-21.483 28.643-32.224 3.58-60.867 3.58-89.51 3.58-250.629 0-386.685-96.671-454.713-179.021 25.063 118.154 93.091 207.664 204.084 264.951 118.154 60.867 250.629 68.028 304.336 68.028 14.322 0 25.063 3.58 25.063 3.58s0 3.58 3.58 3.58h10.741c14.322 0 21.483 7.161 21.483 21.483v125.315c0 14.322 17.902 28.643 28.643 28.643s28.643-10.741 42.965-21.483c3.58-3.58 10.741-7.161 14.322-10.741 21.483-17.902 50.126-35.804 75.189-57.287 25.063-17.902 50.126-35.804 75.189-53.706 21.483-14.322 46.545-32.224 68.028-46.545l25.063-17.902c42.965-28.643 50.126-35.804 50.126-53.706-3.58-14.322-17.902-28.643-53.706-50.126zM870.042-64c71.608 0 118.154 50.126 118.154 121.734v254.21c0 14.322-14.322 28.643-28.643 28.643s-28.643-14.322-28.643-28.643v-254.21c0-39.385-21.483-64.448-60.867-64.448h-730.406c-42.965 0-82.35 25.063-82.35 64.448v644.476c0 39.385 39.385 78.769 82.35 78.769h279.273c14.322 0 28.643 14.322 28.643 28.643s-14.322 28.643-28.643 28.643h-279.273c-75.189-3.58-139.636-64.448-139.636-136.056v-648.056c0-68.028 64.448-121.734 139.636-121.734h730.406z" />
<glyph unicode="&#xe90c;" glyph-name="facebook" horiz-adv-x="514" d="M381.174 764.891h131.796v195.109h-155.054v-0.646c-188.003-6.461-226.766-112.414-229.996-223.536h-0.646v-97.555h-127.273v-191.233h127.919v-511.677h193.171v512.323h158.284l30.365 191.233h-188.649v58.791c0 37.471 24.55 67.19 60.083 67.19z" />
<glyph unicode="&#xe90d;" glyph-name="instagram" d="M741.576 960h-459.151c-155.587 0-282.424-126.837-282.424-282.424v-458.306c0-155.587 126.837-282.424 282.424-282.424h458.306c155.587 0 282.424 126.837 282.424 282.424v458.306c0.846 155.587-125.992 282.424-281.579 282.424zM932.677 218.424c0-105.698-86.249-191.947-191.947-191.947h-458.306c-105.698 0-191.947 86.249-191.947 191.947v459.151c0 105.698 86.249 191.947 191.947 191.947h458.306c105.698 0 191.947-86.249 191.947-191.947v-459.151zM511.577 712.244c-145.44 0-263.822-118.382-263.822-263.822s118.382-263.822 263.822-263.822 263.822 118.382 263.822 263.822c0 145.44-118.382 263.822-263.822 263.822zM511.577 275.078c-95.551 0-173.344 77.794-173.344 173.344s77.794 173.344 173.344 173.344 173.344-78.639 173.344-173.344c0-95.551-77.794-173.344-173.344-173.344zM786.391 789.192c-17.757 0-34.669-6.765-47.353-19.448-11.838-12.684-18.603-29.595-18.603-47.353s6.765-34.669 19.448-47.353c11.838-11.838 29.595-19.448 46.507-19.448 17.757 0 34.669 6.765 47.353 19.448s19.448 29.595 19.448 47.353c0 17.757-6.765 34.669-19.448 47.353-12.684 11.838-29.595 19.448-47.353 19.448z" />
<glyph unicode="&#xe90e;" glyph-name="pinterest" horiz-adv-x="797" d="M465.455 216.514c-62.061 4.965-88.126 35.995-137.775 65.784-27.307-141.498-59.578-276.79-156.393-346.298-29.789 213.488 44.684 373.605 78.196 543.651-58.337 99.297 7.447 297.891 130.327 248.242 152.669-60.819-131.568-367.399 58.337-405.876 199.835-39.719 281.755 345.057 157.634 470.419-178.735 181.217-520.068 4.965-477.867-254.448 9.93-63.302 75.714-83.161 26.065-170.046-114.192 24.824-148.945 115.433-143.981 235.83 7.447 196.112 177.493 333.886 347.539 352.504 214.73 23.583 417.047-79.438 445.595-281.755 31.030-228.383-98.056-475.384-327.68-458.007v0z" />
<glyph unicode="&#xe90f;" glyph-name="twitter" horiz-adv-x="1260" d="M1260.057 839.529c-45.583-21.164-96.051-34.188-148.146-40.7 53.723 32.56 94.423 83.027 113.959 143.262-50.467-30.932-105.819-52.095-164.426-63.491-47.211 50.467-113.959 81.399-188.846 81.399-143.262 0-258.849-115.587-258.849-258.849 0-19.536 1.628-40.7 6.512-58.607-214.893 11.396-405.367 113.959-532.35 270.245-22.792-39.072-35.816-83.027-35.816-130.238 0-89.539 45.583-169.31 115.587-214.893-42.328 1.628-83.027 13.024-117.215 32.56 0-1.628 0-1.628 0-3.256 0-125.355 89.539-229.545 206.754-253.965-21.164-6.512-43.955-9.768-68.375-9.768-16.28 0-32.56 1.628-48.839 4.884 32.56-102.563 128.61-177.45 240.941-179.078-86.283-70.003-198.614-110.703-319.084-110.703-21.164 0-40.7 1.628-61.863 3.256 113.959-73.259 250.709-115.587 395.599-115.587 475.37 0 735.847 393.971 735.847 735.847 0 11.396 0 22.792 0 34.188 50.467 35.816 94.423 81.399 128.61 133.494v0z" />
<glyph unicode="&#xe910;" glyph-name="facebook-2" horiz-adv-x="514" d="M382.458 764.145h132.627v195.855h-157.301c-186.602-7.711-225.157-112.578-229.783-223.614v0-97.157h-128v-191.229h128v-512h192.771v512h158.843l30.843 191.229h-189.687v58.602c0 37.012 24.675 66.313 61.687 66.313z" />
<glyph unicode="&#xe911;" glyph-name="logo" horiz-adv-x="1862" d="M0 960c14.895 0 22.342 0 33.513 0 171.287 0 342.575 0 513.862 0 115.433 0 212.247-44.684 290.444-130.327 33.513-37.236 63.302-78.196 93.091-115.433 37.236 44.684 74.473 93.091 119.156 137.775 74.473 74.473 167.564 104.262 271.825 104.262 171.287 0 338.851 0 510.138 0 26.065 0 29.789-7.447 29.789-33.513 0-175.011-3.724-350.022 0-521.309 3.724-115.433-40.96-208.524-115.433-290.444-107.985-122.88-249.484-171.287-409.6-175.011-141.498-3.724-286.72 0-428.218 0-134.051 0-271.825-3.724-405.876 3.724-212.247 14.895-379.811 107.985-472.902 305.338-18.618 40.96-26.065 89.367-26.065 134.051-3.724 182.458-3.724 364.916-3.724 547.375 0 11.171 0 18.618 0 33.513zM1753.833 844.567c-14.895 0-26.065 0-37.236 0-130.327 0-260.655 0-390.982 0s-268.102-93.091-301.615-219.695c-18.618-70.749-33.513-145.222-37.236-219.695-7.447-107.985 0-215.971 0-323.956 0-11.171 0-18.618 0-29.789 11.171 0 18.618 0 29.789 0 104.262 0 208.524 0 309.062 0 70.749 0 134.051 14.895 197.353 37.236 100.538 37.236 234.589 163.84 230.865 316.509-3.724 134.051 0 271.825 0 405.876 0 7.447 0 18.618 0 33.513zM655.36 364.218c0 141.498 0 294.167 0 443.113 0 7.447-11.171 22.342-18.618 22.342-48.407 7.447-96.815 14.895-152.669 22.342 0-18.618 0-29.789 0-40.96 0-78.196 0-160.116 0-238.313 0-33.513 7.447-59.578 33.513-81.92 44.684-40.96 93.091-85.644 137.775-126.604zM580.887 271.127c0 3.724 3.724 3.724 3.724 7.447-52.131 52.131-104.262 107.985-156.393 160.116-7.447 7.447-18.618 7.447-26.065 7.447-89.367 0-178.735 0-268.102 0-7.447 0-18.618 0-33.513-3.724 11.171-52.131 18.618-100.538 29.789-148.945 3.724-7.447 18.618-22.342 26.065-22.342 141.498 0 282.996 0 424.495 0zM759.622 744.029c0-7.447-3.724-11.171-3.724-14.895 0-156.393 0-312.785 0-469.178 0-7.447 0-14.895 3.724-18.618 37.236-37.236 70.749-78.196 107.985-115.433 3.724 0 3.724 3.724 7.447 3.724-3.724 137.775 11.171 279.273-14.895 417.047-14.895 74.473-40.96 145.222-100.538 197.353zM215.971 170.589c14.895-14.895 22.342-22.342 33.513-29.789 74.473-55.855 160.116-81.92 249.484-89.367 89.367-3.724 182.458 0 271.825 0 7.447 0 14.895 0 29.789 3.724-37.236 40.96-70.749 74.473-107.985 111.709-3.724 3.724-11.171 7.447-18.618 7.447-148.945-3.724-297.891-3.724-458.007-3.724zM331.404 542.953c-74.473 78.196-145.222 152.669-219.695 227.142 0-81.92 0-152.669 0-227.142 70.749 0 141.498 0 219.695 0zM175.011 844.567c70.749-74.473 134.051-141.498 204.8-212.247 0 74.473 0 145.222 0 212.247-63.302 0-130.327 0-204.8 0zM1571.375 434.967c-3.724-115.433-93.091-201.076-204.8-197.353s-197.353 93.091-197.353 208.524c3.724 107.985 93.091 193.629 201.076 193.629 115.433-3.724 201.076-89.367 201.076-204.8z" />
<glyph unicode="&#xe912;" glyph-name="juguete-1" horiz-adv-x="881" d="M618.496 722.432c0-13.573-11.003-24.576-24.576-24.576s-24.576 11.003-24.576 24.576c0 13.573 11.003 24.576 24.576 24.576s24.576-11.003 24.576-24.576zM307.2 722.432c0-13.573-11.003-24.576-24.576-24.576s-24.576 11.003-24.576 24.576c0 13.573 11.003 24.576 24.576 24.576s24.576-11.003 24.576-24.576zM847.872 226.816c16.384 16.384 24.576 36.864 28.672 61.44 4.096 69.632-28.672 131.072-106.496 180.224-40.96 24.576-81.92 40.96-102.4 45.056 32.768 40.96 49.152 90.112 49.152 139.264 0 28.672-4.096 61.44-16.384 94.208 45.056 8.192 77.824 49.152 77.824 94.208 0 53.248-45.056 98.304-98.304 98.304-32.768 0-61.44-16.384-81.92-40.96-49.152 40.96-102.4 65.536-159.744 65.536-53.248-4.096-110.592-24.576-159.744-69.632-16.384 24.576-49.152 40.96-81.92 40.96-53.248 0-98.304-45.056-98.304-98.304 4.096-40.96 32.768-81.92 77.824-90.112-12.288-32.768-16.384-65.536-16.384-94.208 0-53.248 20.48-102.4 49.152-143.36-20.48-4.096-61.44-20.48-98.304-45.056-73.728-45.056-110.592-106.496-106.496-180.224 0-24.576 12.288-45.056 28.672-61.44-24.576-24.576-36.864-61.44-28.672-98.304l32.768-118.784c12.288-40.96 53.248-69.632 102.4-69.632 12.288 0 20.48 0 32.768 4.096v0 0l176.128 49.152c28.672-8.192 61.44-12.288 90.112-12.288 32.768 0 61.44 4.096 94.208 12.288l176.128-49.152c12.288-4.096 20.48-4.096 32.768-4.096 45.056 0 90.112 28.672 102.4 73.728l32.768 118.784c8.192 36.864-4.096 69.632-28.672 98.304zM843.776 292.352c0-20.48-8.192-32.768-20.48-45.056-8.192 4.096-16.384 8.192-24.576 8.192-8.192 4.096-20.48 4.096-28.672 4.096 0 0 0 4.096 0 4.096 0 65.536-24.576 135.168-65.536 200.704 57.344-24.576 147.456-77.824 139.264-172.032zM679.936 906.752c36.864 0 65.536-28.672 65.536-65.536 0-32.768-24.576-57.344-53.248-65.536-12.288 28.672-28.672 53.248-53.248 77.824-4.096 4.096-8.192 12.288-16.384 16.384 12.288 24.576 36.864 36.864 57.344 36.864zM135.168 841.216c0 36.864 28.672 65.536 61.44 65.536 24.576 0 45.056-12.288 57.344-32.768-4.096-8.192-8.192-12.288-16.384-16.384-20.48-24.576-36.864-53.248-49.152-81.92-32.768 8.192-53.248 32.768-53.248 65.536zM266.24 837.12c49.152 57.344 110.592 90.112 176.128 90.112s122.88-32.768 176.128-90.112c45.056-53.248 73.728-122.88 73.728-180.224 0-114.688-102.4-204.8-233.472-212.992v188.416c32.768 4.096 57.344 20.48 57.344 40.96 0 24.576-28.672 40.96-73.728 40.96-40.96 0-73.728-16.384-73.728-40.96 0-20.48 24.576-36.864 57.344-40.96v-192.512c-131.072 8.192-233.472 98.304-233.472 212.992 0 61.44 24.576 126.976 73.728 184.32zM438.272 665.088c-20.48 0-32.768 4.096-36.864 8.192 4.096 4.096 16.384 8.192 36.864 8.192s32.768-4.096 36.864-8.192c0 0-16.384-8.192-36.864-8.192zM126.976 439.808c16.384 12.288 36.864 20.48 53.248 24.576-40.96-61.44-65.536-135.168-65.536-200.704 0 0 0-4.096 0-4.096-8.192 0-20.48 0-28.672-4.096s-16.384-4.096-24.576-8.192c-12.288 12.288-20.48 24.576-20.48 45.056-8.192 57.344 20.48 106.496 86.016 147.456zM159.744-27.136v0c-40.96-12.288-81.92 8.192-94.208 45.056l-32.768 118.784c-8.192 36.864 16.384 73.728 57.344 86.016 20.48 4.096 40.96 4.096 57.344-4.096s28.672-24.576 32.768-40.96l36.864-118.784c4.096-16.384 0-36.864-8.192-53.248-12.288-16.384-28.672-28.672-49.152-32.768zM249.856 30.208c12.288-8.192 24.576-16.384 40.96-20.48l-53.248-16.384c8.192 12.288 12.288 24.576 12.288 36.864zM352.256 22.016c0 0 0 0 0 0-36.864 12.288-73.728 28.672-102.4 49.152l-32.768 114.688c-8.192 24.576-24.576 49.152-49.152 61.44-8.192 4.096-12.288 4.096-20.48 8.192 0 4.096 0 8.192 0 8.192 0 73.728 32.768 155.648 90.112 217.088 53.248-49.152 122.88-77.824 204.8-77.824s155.648 28.672 204.8 77.824c57.344-65.536 90.112-147.456 90.112-217.088 0-4.096 0-8.192 0-8.192-8.192 0-12.288-4.096-20.48-8.192-24.576-12.288-45.056-32.768-49.152-61.44l-32.768-114.688c-53.248-40.96-122.88-61.44-192.512-61.44-32.768 4.096-61.44 4.096-90.112 12.288zM626.688 30.208c0-12.288 4.096-24.576 12.288-36.864l-53.248 16.384c16.384 4.096 28.672 12.288 40.96 20.48zM843.776 136.704l-32.768-118.784c-8.192-36.864-53.248-57.344-94.208-45.056-20.48 4.096-36.864 16.384-49.152 32.768-8.192 16.384-12.288 32.768-8.192 53.248l32.768 118.784c4.096 16.384 16.384 32.768 32.768 40.96s36.864 12.288 57.344 4.096c45.056-8.192 73.728-49.152 61.44-86.016z" />
<glyph unicode="&#xe913;" glyph-name="juguete-2" horiz-adv-x="893" d="M835.584 771.584c-36.864 49.152-90.112 77.824-143.36 77.824-24.576 0-49.152-4.096-69.632-16.384-16.384 36.864-36.864 65.536-65.536 86.016-32.768 28.672-69.632 40.96-110.592 40.96s-77.824-12.288-110.592-40.96c-24.576-20.48-49.152-53.248-65.536-86.016-20.48 8.192-45.056 12.288-69.632 12.288-53.248 0-106.496-28.672-143.36-77.824-36.864-45.056-57.344-106.496-57.344-176.128s20.48-131.072 57.344-180.224c32.768-40.96 73.728-65.536 114.688-73.728l-28.672-49.152c-4.096-4.096-4.096-12.288 0-16.384s12.288-8.192 16.384-8.192h49.152c-4.096-12.288-8.192-16.384-16.384-24.576-12.288-12.288-28.672-32.768-28.672-65.536s16.384-53.248 28.672-65.536c12.288-12.288 20.48-20.48 20.48-45.056s-12.288-32.768-24.576-45.056c-12.288-12.288-28.672-32.768-28.672-65.536 0-8.192 8.192-16.384 16.384-16.384s16.384 8.192 16.384 16.384c0 20.48 8.192 28.672 20.48 45.056 16.384 12.288 32.768 28.672 32.768 65.536 0 32.768-16.384 53.248-28.672 65.536s-20.48 20.48-20.48 45.056c0 20.48 8.192 28.672 20.48 45.056 12.288 12.288 24.576 24.576 28.672 49.152v0c4.096 0 12.288 4.096 16.384 8.192s4.096 12.288 0 16.384l-28.672 49.152c45.056 8.192 86.016 32.768 114.688 73.728 12.288 12.288 20.48 28.672 28.672 49.152 12.288-8.192 28.672-12.288 40.96-12.288l-28.672-49.152c-4.096-4.096-4.096-12.288 0-16.384s8.192-8.192 16.384-8.192h49.152c-4.096-12.288-8.192-16.384-16.384-24.576-12.288-12.288-28.672-32.768-28.672-65.536s16.384-53.248 28.672-65.536c12.288-12.288 20.48-20.48 20.48-45.056 0-20.48-8.192-28.672-20.48-45.056-12.288-12.288-28.672-32.768-28.672-65.536 0-8.192 8.192-16.384 16.384-16.384s16.384 8.192 16.384 16.384c0 20.48 8.192 28.672 20.48 45.056 12.288 12.288 28.672 32.768 28.672 65.536s-16.384 53.248-28.672 65.536c-12.288 12.288-20.48 20.48-20.48 45.056 0 20.48 8.192 28.672 20.48 45.056 12.288 12.288 24.576 24.576 28.672 49.152v0c4.096 0 12.288 4.096 16.384 8.192s4.096 12.288 0 16.384l-28.672 49.152c12.288 4.096 28.672 8.192 40.96 12.288 16.384-36.864 36.864-65.536 65.536-86.016 24.576-20.48 53.248-32.768 81.92-40.96l-28.672-49.152c-4.096-4.096-4.096-12.288 0-16.384s8.192-8.192 16.384-8.192h53.248c-4.096-12.288-8.192-16.384-16.384-24.576-20.48-20.48-36.864-36.864-36.864-73.728 0-32.768 16.384-53.248 28.672-65.536s20.48-20.48 20.48-45.056-8.192-28.672-20.48-40.96c-12.288-12.288-28.672-32.768-28.672-65.536 0-8.192 8.192-16.384 16.384-16.384s16.384 8.192 16.384 16.384c0 20.48 8.192 28.672 20.48 45.056 12.288 12.288 28.672 32.768 28.672 65.536s-16.384 53.248-28.672 65.536c-12.288 12.288-20.48 20.48-20.48 45.056 0 20.48 8.192 28.672 20.48 45.056 12.288 12.288 24.576 24.576 28.672 49.152 4.096 0 8.192 4.096 12.288 8.192s4.096 12.288 0 16.384l-28.672 49.152c45.056 8.192 86.016 32.768 114.688 73.728 36.864 49.152 57.344 110.592 57.344 180.224s-20.48 126.976-57.344 176.128zM200.704 321.024l12.288-20.48h-24.576l12.288 20.48zM200.704 370.176c-90.112 0-167.936 98.304-167.936 221.184s73.728 221.184 167.936 221.184 172.032-98.304 172.032-221.184-77.824-221.184-172.032-221.184zM348.16 771.584c-16.384 16.384-32.768 32.768-49.152 45.056 12.288 32.768 32.768 57.344 57.344 77.824 28.672 20.48 57.344 32.768 90.112 32.768s61.44-12.288 90.112-32.768c28.672-20.48 49.152-53.248 61.44-90.112 12.288-32.768 16.384-65.536 16.384-98.304 0-86.016-40.96-167.936-98.304-200.704-20.48-12.288-45.056-20.48-69.632-20.48-20.48 0-40.96 4.096-57.344 12.288 8.192 28.672 16.384 61.44 16.384 94.208 0 69.632-20.48 131.072-57.344 180.224zM446.464 431.616l12.288-20.48h-24.576l12.288 20.48zM692.224 321.024l12.288-20.48h-24.576l12.288 20.48zM692.224 370.176c-32.768 0-61.44 12.288-90.112 32.768-24.576 20.48-45.056 45.056-57.344 77.824 61.44 45.056 102.4 131.072 102.4 221.184 0 32.768-4.096 65.536-16.384 94.208 16.384 8.192 36.864 12.288 57.344 12.288 98.304 4.096 172.032-94.208 172.032-217.088s-73.728-221.184-167.936-221.184z" />
<glyph unicode="&#xe914;" glyph-name="juguete-3" horiz-adv-x="954" d="M737.28 955.904c-49.152 8.192-98.304 4.096-147.456-16.384-45.056-20.48-81.92-53.248-114.688-98.304-28.672 40.96-65.536 77.824-110.592 98.304s-98.304 24.576-147.456 16.384c-110.592-20.48-196.608-118.784-212.992-237.568-4.096-16.384-4.096-36.864-4.096-53.248 0 0 4.096-200.704 4.096-200.704 8.192-86.016 49.152-172.032 122.88-258.048 81.92-94.208 196.608-184.32 344.064-266.24 4.096 0 4.096 0 8.192 0v0 0c4.096 0 8.192 0 8.192 0 151.552 81.92 266.24 172.032 344.064 266.24 69.632 86.016 110.592 172.032 122.88 258.048 0 0 4.096 200.704 4.096 200.704 0 16.384 0 36.864-4.096 53.248-20.48 118.784-106.496 217.088-217.088 237.568zM716.8 927.232c4.096 0 8.192 0 16.384-4.096 20.48-4.096 40.96-12.288 61.44-20.48l-86.016-139.264c-32.768-16.384-53.248-32.768-69.632-49.152-4.096 0-8.192 0-12.288 0h-24.576c-4.096 0-8.192 0-12.288 0 0 0-4.096 4.096-4.096 4.096l131.072 208.896zM565.248 632.32c0 0-4.096-4.096-4.096-4.096-20.48-20.48-57.344-40.96-98.304-40.96-4.096 4.096-12.288 20.48-12.288 81.92s8.192 77.824 12.288 81.92c49.152 0 86.016-28.672 106.496-49.152-8.192-8.192-12.288-20.48-12.288-32.768 0-16.384 4.096-28.672 8.192-36.864zM589.824 665.088c0 8.192 8.192 20.48 20.48 20.48h24.576c8.192 0 20.48-8.192 20.48-20.48 0-8.192-8.192-20.48-20.48-20.48h-24.576c-12.288 0-20.48 8.192-20.48 20.48zM667.648 632.32c8.192 8.192 12.288 20.48 12.288 32.768s-4.096 24.576-12.288 32.768c20.48 20.48 57.344 49.152 106.496 49.152 4.096-4.096 12.288-20.48 12.288-81.92s-8.192-77.824-12.288-81.92c-45.056 0-77.824 20.48-102.4 40.96 0 4.096-4.096 8.192-4.096 8.192zM270.336 108.032c-180.224 147.456-225.28 278.528-233.472 356.352v49.152c12.288-28.672 28.672-61.44 49.152-90.112 45.056-65.536 106.496-131.072 188.416-192.512l-4.096-122.88zM110.592 443.904c-61.44 90.112-86.016 184.32-73.728 270.336 16.384 106.496 90.112 188.416 188.416 208.896 94.208 20.48 180.224-24.576 237.568-122.88 4.096-8.192 16.384-8.192 20.48-4.096 4.096 0 8.192 0 8.192 4.096v0c49.152 77.824 114.688 122.88 188.416 126.976l-110.592-188.416c-24.576 20.48-61.44 36.864-106.496 36.864-4.096 0-12.288 0-20.48-4.096-16.384-12.288-24.576-49.152-24.576-106.496s8.192-94.208 24.576-106.496c4.096-4.096 8.192-4.096 12.288-4.096l-172.032-286.72c-73.728 53.248-131.072 114.688-172.032 176.128zM360.448 42.496c-20.48 12.288-36.864 24.576-57.344 40.96v126.976c16.384-12.288 36.864-24.576 57.344-36.864v-131.072zM307.2 243.2l184.32 311.296c36.864 0 86.016 45.056 94.208 57.344 4.096-4.096 20.48-4.096 28.672 0l-118.784-196.608-126.976-212.992c-20.48 12.288-40.96 28.672-61.44 40.96zM462.848-18.944c-24.576 12.288-49.152 28.672-69.632 40.96v126.976c20.48-12.288 45.056-28.672 69.632-40.96v-126.976zM921.6 464.384c-12.288-98.304-81.92-290.816-425.984-487.424v126.976c172.032 94.208 299.008 200.704 376.832 315.392 20.48 28.672 36.864 57.344 49.152 90.112v-45.056zM843.776 443.904c-73.728-110.592-196.608-212.992-368.64-307.2-28.672 16.384-53.248 32.768-81.92 45.056l262.144 430.080c12.288-12.288 40.96-40.96 69.632-57.344 12.288-4.096 28.672-8.192 45.056-8.192 0 0 0 0 4.096 0s12.288 0 16.384 8.192c20.48 16.384 28.672 53.248 28.672 110.592s-8.192 94.208-24.576 106.496c-8.192 4.096-16.384 8.192-20.48 4.096-8.192 0-16.384 0-24.576 0l65.536 110.592c53.248-36.864 90.112-98.304 102.4-172.032 16.384-86.016-12.288-180.224-73.728-270.336z" />
<glyph unicode="&#xe915;" glyph-name="juguete-4" horiz-adv-x="344" d="M286.72 628.224c-32.768 28.672-49.152 65.536-49.152 106.496v114.688c8.192 8.192 16.384 16.384 16.384 24.576v57.344c0 16.384-12.288 28.672-28.672 28.672h-106.496c-16.384 0-28.672-12.288-28.672-28.672v-57.344c0-12.288 8.192-20.48 20.48-24.576v-110.592c0-45.056-20.48-86.016-49.152-114.688-40.96-28.672-61.44-73.728-61.44-122.88v-524.288c0-24.576 20.48-40.96 40.96-40.96h258.048c24.576 0 40.96 20.48 40.96 40.96v524.288c4.096 45.056-16.384 90.112-53.248 126.976zM114.688 931.328c0 4.096 4.096 4.096 0 0l110.592 4.096c0 0 4.096 0 4.096-4.096v-57.344c0 0 0-4.096-4.096-4.096v0h-106.496c0 0-4.096 0-4.096 4.096v57.344zM212.992 718.336h-81.92c0 8.192 0 16.384 0 20.48v110.592h77.824v-110.592c4.096-8.192 4.096-16.384 4.096-20.48zM24.576 501.248c0 40.96 20.48 81.92 49.152 110.592 28.672 20.48 45.056 49.152 53.248 81.92h90.112c8.192-32.768 28.672-61.44 53.248-86.016 28.672-28.672 45.056-65.536 45.056-106.496v-16.384h-290.816v16.384zM319.488-23.040v0c0-8.192-8.192-16.384-16.384-16.384h-258.048c-8.192 0-16.384 8.192-16.384 16.384v98.304h290.816v-98.304zM319.488 99.84v0h-294.912v360.448h290.816v-360.448z" />
<glyph unicode="&#xe916;" glyph-name="juguete-5" horiz-adv-x="1256" d="M669.646 248.501h334.823c11.161 0 19.531 8.371 19.531 19.531v189.733c0 11.161-8.371 19.531-19.531 19.531h-334.823c-11.161 0-19.531-8.371-19.531-19.531v-186.943c-2.79-13.951 5.58-22.322 19.531-22.322zM689.177 438.234h292.97v-147.88h-292.97v147.88zM103.237 521.94h167.411c11.161 0 19.531 8.371 19.531 19.531s-8.371 19.531-19.531 19.531h-167.411c-11.161 2.79-19.531-5.58-19.531-19.531s8.371-19.531 19.531-19.531zM354.354 521.94h167.411c11.161 0 19.531 8.371 19.531 19.531s-8.371 19.531-19.531 19.531h-167.411c-11.161 0-19.531-8.371-19.531-19.531s8.371-19.531 19.531-19.531zM103.237 438.234h270.649c11.161 0 19.531 8.371 19.531 19.531s-8.371 19.531-19.531 19.531h-270.649c-11.161 2.79-19.531-5.58-19.531-19.531 0-11.161 8.371-19.531 19.531-19.531zM521.766 480.087h-61.384c-11.161 0-19.531-8.371-19.531-19.531s8.371-19.531 19.531-19.531h61.384c11.161 0 19.531 8.371 19.531 19.531 2.79 11.161-5.58 19.531-19.531 19.531zM1236.054 739.575c-13.951 19.531-33.482 27.902-55.804 30.692l-50.223 5.58v100.447c0 44.643-36.272 83.706-83.706 83.706h-962.616c-47.433 0-83.706-36.272-83.706-83.706v-669.646c0-39.063 25.112-69.755 58.594-80.916 0-41.853 30.692-78.125 75.335-83.706l965.406-108.817c2.79 0 5.58 0 8.371 0 41.853 0 78.125 30.692 83.706 69.755l64.174 675.226c2.79 19.531-5.58 44.643-19.531 61.384zM41.853 814.91h1046.322v-122.768h-1046.322v122.768zM83.706 918.147h962.616c22.322 0 41.853-19.531 41.853-41.853v-19.531h-1046.322v19.531c0 22.322 19.531 41.853 41.853 41.853zM41.853 206.649v440.85h1046.322v-440.85c0-22.322-19.531-41.853-41.853-41.853h-962.616c-22.322 0-41.853 19.531-41.853 41.853zM1213.733 686.561l-61.384-672.436c-2.79-22.322-22.322-39.063-44.643-36.272l-968.196 108.817c-19.531 2.79-36.272 19.531-36.272 36.272h943.084c44.643 0 83.706 36.272 83.706 83.706v530.136l47.433-2.79c11.161 0 19.531-5.58 27.902-13.951 5.58-11.161 11.161-22.322 8.371-33.482z" />
<glyph unicode="&#xe917;" glyph-name="cajas" horiz-adv-x="1054" d="M1049.776 453.858l-114.819 135.908 114.819 135.908c4.686 2.343 4.686 7.030 4.686 11.716s-4.686 9.373-9.373 11.716l-374.92 208.549c-4.686 4.686-14.059 2.343-18.746-2.343l-114.819-112.476-112.476 112.476c-4.686 4.686-14.059 7.030-18.746 2.343l-396.009-229.638c-4.686-2.343-9.373-7.030-9.373-11.716s2.343-9.373 4.686-14.059l135.908-114.819-117.162-154.654c-2.343-4.686-4.686-9.373-2.343-14.059 0-4.686 4.686-9.373 7.030-11.716l114.819-63.268c0-2.343 0-2.343 0-4.686v-152.311c0-21.089 11.716-39.835 28.119-49.208l335.085-194.49c9.373-4.686 18.746-7.030 28.119-7.030 0 0 0 0 0 0s0 0 0 0 0 0 0 0c9.373 0 18.746 2.343 28.119 7.030l335.085 192.146c18.746 9.373 30.462 30.462 30.462 51.551v168.714l117.162 72.641c4.686 2.343 7.030 7.030 7.030 11.716 2.343 4.686 2.343 9.373-2.343 14.059zM520.201 409.336l-325.712 180.43 325.712 199.176v-379.606zM553.007 788.943l325.712-199.176-325.712-180.43v379.606zM665.483 922.508l346.801-192.146-103.103-119.506-346.801 210.892 103.103 100.76zM410.069 922.508l100.76-100.76-346.801-213.236-119.506 103.103 365.547 210.892zM166.371 568.677l344.458-192.146-105.446-140.595-344.458 192.146 105.446 140.595zM187.46 165.638c-7.030 4.686-11.716 11.716-11.716 21.089v140.595l227.295-126.535c2.343-2.343 4.686-2.343 7.030-2.343 4.686 0 9.373 2.343 14.059 7.030l93.73 126.535v-356.174l-330.398 189.803zM897.465 186.728c0-9.373-4.686-18.746-11.716-21.089l-332.741-189.803v356.174l96.073-128.879c2.343-4.686 7.030-7.030 14.059-7.030 2.343 0 7.030 0 9.373 2.343l224.952 138.252v-149.968zM667.826 235.936l-105.446 140.595 346.801 192.146 103.103-121.849-344.458-210.892z" />
<glyph unicode="&#xe918;" glyph-name="escudo" horiz-adv-x="888" d="M790.623 814.735c-178.605 0-345.302 145.265-345.302 145.265s-166.698-142.884-345.302-142.884c-59.535 0-100.019 9.526-100.019 9.526v-285.767c0-111.926 35.721-223.851 102.4-319.107 66.679-92.874 178.605-219.088 333.395-283.386l9.526-2.381 9.526 4.763c152.409 61.916 266.716 188.13 333.395 283.386 66.679 92.874 102.4 204.8 102.4 319.107v281.005c-2.381 0-50.009-9.526-100.019-9.526v0zM795.386 769.488c19.051 0 38.102 2.381 54.772 4.763v-230.995c0-26.195-2.381-50.009-4.763-76.205h-381.023v423.888c57.153-42.865 185.749-121.451 331.014-121.451zM42.865 774.251c19.051-2.381 35.721-2.381 54.772-4.763 142.884 0 264.335 71.442 323.87 114.307v-416.744h-371.498c-4.763 26.195-4.763 50.009-4.763 76.205v230.995zM140.502 247.963c-40.484 54.772-66.679 114.307-83.349 178.605h364.353v-433.414c-126.214 61.916-221.47 169.079-281.005 254.809zM754.902 247.963c-59.535-85.73-159.553-197.656-290.53-257.191v435.795h371.498c-14.288-64.298-42.865-123.833-80.967-178.605z" />
<glyph unicode="&#xe919;" glyph-name="medalla" horiz-adv-x="1074" d="M1069.247 790.921l-164.316 161.935c-4.763 4.763-9.526 7.144-16.67 7.144h-702.512c-7.144 0-11.907-2.381-16.67-7.144l-161.935-161.935c-7.144-7.144-9.526-19.051-2.381-28.577l340.54-519.144c-14.288-28.577-21.433-59.535-21.433-92.874 0-119.070 95.256-214.326 214.326-214.326s214.326 95.256 214.326 214.326c0 33.34-7.144 64.298-21.433 92.874l340.54 519.144c4.763 9.526 4.763 21.433-2.381 28.577zM195.274 914.753h685.842l116.688-116.688h-164.316c0 0 0 0 0 0h-592.967c0 0 0 0 0 0h-161.935l116.688 116.688zM790.623 750.437l-252.428-385.786c0 0 0 0 0 0v0l-254.809 385.786h507.237zM66.679 750.437h164.316l257.191-392.93c-45.247-11.907-85.73-38.102-114.307-73.823l-307.2 466.753zM538.195-18.753c-92.874 0-169.079 76.205-169.079 169.079s76.205 169.079 169.079 169.079c92.874 0 169.079-76.205 169.079-169.079s-76.205-169.079-169.079-169.079zM704.893 286.065c-28.577 35.721-69.060 61.916-114.307 73.823l254.809 390.549h164.316l-304.819-464.372z" />
<glyph unicode="&#xe91a;" glyph-name="comillas-2" horiz-adv-x="1358" d="M334.090 503.682c10.865 89.634 92.35 171.119 239.024 244.456l27.162 13.581-108.647 198.281-24.446-13.581c-309.645-154.822-467.183-377.549-467.183-657.316 0-97.782 29.878-179.268 92.35-247.172s135.809-103.215 222.727-103.215c76.053 0 141.241 27.162 192.849 81.485s76.053 119.512 76.053 198.281c0 73.337-27.162 138.525-78.769 195.565-46.175 46.175-103.215 76.053-171.119 89.634zM464.467 58.228c-40.743-43.459-92.35-65.188-152.106-65.188-70.621 0-127.66 27.162-179.268 84.202s-76.053 127.66-76.053 211.862c0 127.66 35.31 244.456 108.647 344.955 67.905 95.066 171.119 179.268 304.212 249.889l54.324-100.499c-162.971-84.202-244.456-187.416-244.456-304.212v-24.446l24.446-2.716c67.905-8.149 119.512-32.594 162.971-78.769s62.472-97.782 62.472-157.538c-2.716-62.472-21.729-114.080-65.188-157.538zM1097.337 503.682c10.865 89.634 92.35 171.119 236.308 244.456l27.162 13.581-108.647 198.281-24.446-13.581c-309.645-154.822-467.183-377.549-467.183-657.316 0-97.782 29.878-179.268 92.35-247.172s135.809-103.215 222.727-103.215c76.053 0 141.241 27.162 192.849 81.485s76.053 119.512 76.053 198.281c0 73.337-27.162 138.525-78.769 195.565-46.175 46.175-103.215 76.053-168.403 89.634zM1227.714 58.228c-40.743-43.459-89.634-65.188-152.106-65.188-70.621 0-127.66 27.162-179.268 84.202s-78.769 127.66-78.769 211.862c0 127.66 35.31 244.456 108.647 344.955 67.905 95.066 171.119 179.268 304.212 249.889l51.607-100.499c-160.255-84.202-244.456-187.416-244.456-304.212v-24.446l24.446-2.716c65.188-8.149 119.512-32.594 160.255-78.769 43.459-46.175 62.472-97.782 62.472-157.538 2.716-62.472-16.297-114.080-57.040-157.538z" />
<glyph unicode="&#xe91b;" glyph-name="mas" d="M962.56 509.44h-389.12v389.12c0 30.72-30.72 61.44-61.44 61.44s-61.44-30.72-61.44-61.44v-389.12h-389.12c-30.72 0-61.44-30.72-61.44-61.44s30.72-61.44 61.44-61.44h389.12v-389.12c0-30.72 30.72-61.44 61.44-61.44s61.44 30.72 61.44 61.44v389.12h389.12c30.72 0 61.44 30.72 61.44 61.44s-30.72 61.44-61.44 61.44z" />
<glyph unicode="&#xe91c;" glyph-name="eliminar" horiz-adv-x="809" d="M739.273 838.991h-136.262v89.486c0 18.304-14.236 31.523-32.54 31.523-2.034 0-3.051-1.017-3.051-1.017-1.017 0-2.034 1.017-3.051 1.017h-325.402c-18.304 0-31.523-14.236-31.523-31.523v-88.469h-137.279c-39.658 0-70.165-30.506-70.165-70.165v-114.908h61.013v-649.787c0-39.658 29.49-69.148 69.148-69.148h550.133c39.658 0 70.165 29.49 70.165 69.148v649.787h59.996v114.908c-1.017 38.642-31.523 69.148-71.182 69.148v0zM270.491 896.953h268.457v-56.945h-268.457v56.945zM685.378 5.148c0-4.068-2.034-6.101-6.101-6.101h-549.116c-4.068 0-6.101 2.034-6.101 6.101v649.787h561.319v-649.787zM745.374 718.999h-681.311v50.844c0 4.068 2.034 6.101 6.101 6.101h670.125c4.068 0 6.101-2.034 6.101-6.101v-50.844zM520.643 580.703h64.064v-524.711h-64.064v524.711zM373.196 580.703h64.064v-524.711h-64.064v524.711zM225.748 580.703h64.064v-524.711h-64.064v524.711z" />
</font>
</defs>
</svg>
